<svg width="0" height="0" class="hidden">
  <symbol version="1.1" id="chevron" xmlns="http://www.w3.org/2000/svg" xmlns:xlink="http://www.w3.org/1999/xlink" x="0px" y="0px" xml:space="preserve" viewBox="0 0 185.343 185.343">
    <g>
      <g>
        <path d="M51.707,185.343c-2.741,0-5.493-1.044-7.593-3.149c-4.194-4.194-4.194-10.981,0-15.175
			l74.352-74.347L44.114,18.32c-4.194-4.194-4.194-10.987,0-15.175c4.194-4.194,10.987-4.194,15.18,0l81.934,81.934
			c4.194,4.194,4.194,10.987,0,15.175l-81.934,81.939C57.201,184.293,54.454,185.343,51.707,185.343z"></path>
      </g>
    </g>
    <g></g>
    <g></g>
    <g></g>
    <g></g>
    <g></g>
    <g></g>
    <g></g>
    <g></g>
    <g></g>
    <g></g>
    <g></g>
    <g></g>
    <g></g>
    <g></g>
    <g></g>
  </symbol>
  <symbol version="1.1" xmlns="http://www.w3.org/2000/svg" xmlns:xlink="http://www.w3.org/1999/xlink" enable-background="new 0 0 469.518 469.518" viewBox="0 0 469.518 469.518" id="globe">
    <path d="m459.518,328.842h-6.825c-2.443-54.519-24.827-105.427-63.667-144.267-41.206-41.206-95.993-63.899-154.267-63.899-58.274,0-113.061,22.693-154.267,63.899-38.84,38.84-61.223,89.747-63.666,144.267h-6.826c-5.523,0-10,4.477-10,10s4.477,10 10,10h449.518c5.522,0 10-4.477 10-10s-4.477-10-10-10zm-332.936-78.283c17.82,2.59 35.962,4.527 54.386,5.801-1.081,11.105-1.941,22.609-2.569,34.41-20.278-1.531-40.269-3.876-59.779-7.024 2.028-11.444 4.693-22.541 7.962-33.187zm-27.646,29.713c-16.974-3.264-33.517-7.139-49.491-11.616 4.002-10.531 8.876-20.635 14.535-30.224 13.979,3.42 28.216,6.401 42.686,8.938-3.142,10.609-5.726,21.607-7.73,32.902zm251.962,3.473c-19.509,3.148-39.5,5.493-59.778,7.025-0.628-11.801-1.488-23.305-2.569-34.41 18.424-1.274 36.566-3.211 54.385-5.801 3.269,10.646 5.933,21.743 7.962,33.186zm11.954-36.375c14.47-2.538 28.707-5.518 42.686-8.938 5.659,9.588 10.532,19.689 14.534,30.219-15.972,4.479-32.515,8.355-49.489,11.619-2.005-11.294-4.589-22.291-7.731-32.9zm-200.09-67.31c12.762-15.651 27.11-26.905 42.319-33.274-4.433,9.318-8.439,21.164-12.049,35.576-10.162-0.56-20.255-1.332-30.27-2.302zm71.997,23.45c8.668,0 17.304-0.146 25.901-0.43 2.169,10.707 4.058,22.255 5.647,34.481-10.435,0.428-20.95,0.656-31.548,0.656-10.598,0-21.113-0.228-31.548-0.656 1.589-12.226 3.478-23.773 5.647-34.481 8.597,0.284 17.233,0.43 25.901,0.43zm41.727-21.148c-3.61-14.412-7.616-26.257-12.05-35.576 15.209,6.369 29.557,17.623 42.319,33.274-10.014,0.97-20.107,1.742-30.269,2.302zm-41.727,75.854c11.36,0 22.633-0.247 33.814-0.726 1.095,11.116 1.962,22.661 2.589,34.528-12.072,0.585-24.217,0.896-36.403,0.896-12.185,0-24.33-0.31-36.402-0.896 0.628-11.867 1.495-23.412 2.589-34.528 11.18,0.479 22.453,0.726 33.813,0.726zm51.563-21.751c-1.542-12.102-3.366-23.595-5.458-34.325 13.155-0.782 26.199-1.9 39.106-3.351 6.158,10.04 11.58,20.939 16.211,32.542-16.348,2.28-32.982,3.987-49.859,5.134zm43.535-59.019c-5.416-7.672-11.162-14.615-17.19-20.801 11.835,5.08 23.079,11.28 33.599,18.467-5.44,0.841-10.91,1.618-16.409,2.334zm-73.818,5.757c-7.069,0.197-14.162,0.307-21.281,0.307s-14.212-0.111-21.28-0.307c9.356-34.975 19.012-42.526 21.28-42.526s11.925,7.551 21.281,42.526zm-116.378-5.757c-5.499-0.715-10.969-1.493-16.409-2.334 10.52-7.187 21.764-13.388 33.599-18.468-6.028,6.187-11.774,13.129-17.19,20.802zm48.994,24.694c-2.092,10.73-3.915,22.224-5.458,34.325-16.877-1.147-33.512-2.854-49.861-5.134 4.631-11.603 10.053-22.501 16.211-32.542 12.908,1.452 25.953,2.569 39.108,3.351zm-11.09,108.642c-0.181,5.967-0.307,11.99-0.371,18.06h-63.182c0.26-8.544 0.855-16.984 1.769-25.287 20.173,3.244 40.836,5.663 61.784,7.227zm19.97,1.227c12.347,0.597 24.768,0.904 37.224,0.904 12.457,0 24.877-0.308 37.225-0.904 0.164,5.562 0.28,11.175 0.341,16.833h-75.131c0.061-5.658 0.177-11.271 0.341-16.833zm94.419-1.227c20.949-1.564 41.611-3.983 61.785-7.228 0.914,8.303 1.509,16.744 1.769,25.288h-63.182c-0.066-6.07-0.191-12.093-0.372-18.06zm81.509-10.695c18.104-3.456 35.743-7.591 52.759-12.386 3.536,13.226 5.745,26.988 6.452,41.141h-57.164c-0.279-9.715-0.968-19.314-2.047-28.755zm20.284-79.405c-12.252,2.847-24.697,5.365-37.335,7.522-4.288-11.33-9.267-22.09-14.888-32.169 8.729-1.249 17.385-2.656 25.96-4.216 9.664,8.733 18.467,18.401 26.263,28.863zm-291.713-28.863c8.575,1.56 17.231,2.967 25.96,4.216-5.62,10.078-10.6,20.838-14.888,32.169-12.638-2.156-25.083-4.675-37.335-7.522 7.796-10.462 16.599-20.13 26.263-28.863zm-58.739,95.888c17.018,4.794 34.656,8.927 52.76,12.382-1.079,9.44-1.768,19.039-2.047,28.753h-57.163c0.707-14.151 2.915-27.911 6.45-41.135z"></path>
  </symbol>
  <symbol xmlns="http://www.w3.org/2000/svg" enable-background="new 0 0 24 24" fill="#000000" viewBox="0 0 24 24" id="homeReno">
    <g>
      <rect fill="none" height="24" width="24"></rect>
      <path d="M21.69,16.37l1.14-1l-1-1.73l-1.45,0.49c-0.32-0.27-0.68-0.48-1.08-0.63L19,12h-2l-0.3,1.49c-0.4,0.15-0.76,0.36-1.08,0.63 l-1.45-0.49l-1,1.73l1.14,1c-0.08,0.5-0.08,0.76,0,1.26l-1.14,1l1,1.73l1.45-0.49c0.32,0.27,0.68,0.48,1.08,0.63L17,22h2l0.3-1.49 c0.4-0.15,0.76-0.36,1.08-0.63l1.45,0.49l1-1.73l-1.14-1C21.77,17.13,21.77,16.87,21.69,16.37z M18,19c-1.1,0-2-0.9-2-2s0.9-2,2-2 s2,0.9,2,2S19.1,19,18,19z M19,4v6h-2V6h-2v6h-2V5H7v14h5v2H3v-2h2V3h10v1H19z M12,13h-2v-2h2V13z"></path>
    </g>
  </symbol>
  <symbol xmlns="http://www.w3.org/2000/svg" viewBox="0 0 50 2" id="line">
    <path fill="#63c3ef" d="M0 0h50v2H0z"></path>
  </symbol>
  <symbol id="menu" enable-background="new 0 0 24 24" xmlns="http://www.w3.org/2000/svg" viewBox="0 0 24 24">
    <g>
      <path d="m21.5 24h-19c-1.379 0-2.5-1.122-2.5-2.5v-19c0-1.378 1.121-2.5 2.5-2.5h19c1.379 0 2.5 1.122 2.5 2.5v19c0 1.378-1.121 2.5-2.5 2.5zm-19-23c-.827 0-1.5.673-1.5 1.5v19c0 .827.673 1.5 1.5 1.5h19c.827 0 1.5-.673 1.5-1.5v-19c0-.827-.673-1.5-1.5-1.5z"></path>
    </g>
    <g>
      <path d="m16.5 8h-9c-.276 0-.5-.224-.5-.5s.224-.5.5-.5h9c.276 0 .5.224.5.5s-.224.5-.5.5z"></path>
    </g>
    <g>
      <path d="m16.5 12.5h-9c-.276 0-.5-.224-.5-.5s.224-.5.5-.5h9c.276 0 .5.224.5.5s-.224.5-.5.5z"></path>
    </g>
    <g>
      <path d="m16.5 17h-9c-.276 0-.5-.224-.5-.5s.224-.5.5-.5h9c.276 0 .5.224.5.5s-.224.5-.5.5z"></path>
    </g>
  </symbol>
  <symbol xmlns="http://www.w3.org/2000/svg" fill="#000000" viewBox="0 0 24 24" id="person">
    <path d="M0 0h24v24H0V0z" fill="none"></path>
    <path d="M12 6c1.1 0 2 .9 2 2s-.9 2-2 2-2-.9-2-2 .9-2 2-2m0 10c2.7 0 5.8 1.29 6 2H6c.23-.72 3.31-2 6-2m0-12C9.79 4 8 5.79 8 8s1.79 4 4 4 4-1.79 4-4-1.79-4-4-4zm0 10c-2.67 0-8 1.34-8 4v2h16v-2c0-2.66-5.33-4-8-4z"></path>
  </symbol>
  <symbol xmlns="http://www.w3.org/2000/svg" fill="#000000" viewBox="0 0 24 24" id="school">
    <path d="M0 0h24v24H0V0z" fill="none"></path>
    <path d="M12 3L1 9l4 2.18v6L12 21l7-3.82v-6l2-1.09V17h2V9L12 3zm6.82 6L12 12.72 5.18 9 12 5.28 18.82 9zM17 15.99l-5 2.73-5-2.73v-3.72L12 15l5-2.73v3.72z"></path>
  </symbol>
  <symbol id="search" xmlns="http://www.w3.org/2000/svg" viewBox="0 0 21.8 23.8">
    <defs></defs>
    <path d="M11,17.9a8.7,8.7,0,0,0,.8,4.8,1,1,0,0,0,1.2.4.8.8,0,0,0,.4-1.2,8.3,8.3,0,0,1-.7-3.8,7.6,7.6,0,0,1,15.2,1.1A7.7,7.7,0,0,1,16.1,25a.8.8,0,0,0-1.2.2.9.9,0,0,0,.2,1.3A10,10,0,0,0,19.6,28a9.3,9.3,0,0,0,6.1-1.7l5.5,6.4a.9.9,0,0,0,.6.3.7.7,0,0,0,.7-.2.9.9,0,0,0,.1-1.2L27,25.2a8.9,8.9,0,0,0,2.6-5.8A9.3,9.3,0,1,0,11,17.9Z" transform="translate(-10.9 -9.3)"></path>
  </symbol>
  <symbol xmlns="http://www.w3.org/2000/svg" viewBox="0 0 16 11" id="tick">
    <defs></defs>
    <path id="Shape_10_copy_5" d="M2,4L6,8l8-8"></path>
  </symbol>
  <symbol xmlns="http://www.w3.org/2000/svg" fill="#000000" viewBox="0 0 24 24" id="business">
    <path d="M0 0h24v24H0V0z" fill="none"></path>
    <path d="M20 7h-4V5l-2-2h-4L8 5v2H4c-1.1 0-2 .9-2 2v5c0 .75.4 1.38 1 1.73V19c0 1.11.89 2 2 2h14c1.11 0 2-.89 2-2v-3.28c.59-.35 1-.99 1-1.72V9c0-1.1-.9-2-2-2zM10 5h4v2h-4V5zM4 9h16v5h-5v-3H9v3H4V9zm9 6h-2v-2h2v2zm6 4H5v-3h4v1h6v-1h4v3z"></path>
  </symbol>
</svg>